# xmcd
#
# Track frame offsets:
#	150
#	17887
#	36974
#	51261
#	68623
#	87335
#	102972
#	118534
#	136346
#	154683
#	171745
#	188057
#	210669
#	229306
#	246143
#	265005
#	282292
#	297029
#	313566
#
# Disc length: 4405 seconds
#
# Revision: 1
# Processed by: cddbd v1.5.2PL0 Copyright (c) Steve Scherf et al.
# Submitted via: audiograbber 1.83.01
#
DISCID=12113313
DTITLE=Various Artist - Promo Rhythm Radio Feb08
DYEAR=2008
DGENRE=A Cappella
TTITLE0=Janet - Feedback (PO Clean Edit)
TTITLE1=Webbie - Independent  (Amended)
TTITLE2=Bow Wow and Omarion - Hey Baby (Jump Off)
TTITLE3=Fergie f Soulja Boy - Clumsy (Colipark Remix)
TTITLE4=Keyshia Cole - I Remember
TTITLE5=Playaz Circle f Ludacris - U Can Believe It
TTITLE6=Roy J f Yung Berg - Sexy Can I
TTITLE7=NeYo - Go On Girl
TTITLE8=The Dream - Falsetto
TTITLE9=Ying Yang Twins - Crop
TTITLE10=Plies f Tank - You (PO Clean Edit)
TTITLE11=Justistin Timberlake f Timbaland and Thyree 6 Mafia - Chop Me Up (Album 
TTITLE11=Version)
TTITLE12=Mike Jones F Hurricane Chris - Drop and Gimme 50 (Super Clean)
TTITLE13=You Gotti f Pleasure P - Let's Vibe
TTITLE14=Hurricane Cchris f Boxie - Playas Rock
TTITLE15=Jagged Edge - Whole Town Laughing (Album Version)
TTITLE16=Shawty Lo - They Know (Main)
TTITLE17=Fat Joe f J Holiday - I Won't Tell
TTITLE18=Timbaland f Keri Hilson and Nicole Scherzinger - Scream
EXTD=
EXTT0=
EXTT1=
EXTT2=
EXTT3=
EXTT4=
EXTT5=
EXTT6=
EXTT7=
EXTT8=
EXTT9=
EXTT10=
EXTT11=
EXTT12=
EXTT13=
EXTT14=
EXTT15=
EXTT16=
EXTT17=
EXTT18=
PLAYORDER=
